<svg width="30" height="30" viewBox="0 0 30 30" fill="none" xmlns="http://www.w3.org/2000/svg">
<path id="Subtract" d="M15 0C23.2843 0 30 6.71573 30 15C30 23.2843 23.2843 30 15 30C6.71573 30 0 23.2843 0 15C0 6.71573 6.71573 0 15 0ZM8.4375 14.0625C7.91973 14.0625 7.5 14.4822 7.5 15C7.5 15.5178 7.91973 15.9375 8.4375 15.9375H19.2992L15.2746 19.9621C14.9085 20.3282 14.9085 20.9218 15.2746 21.2879C15.6407 21.654 16.2343 21.654 16.6004 21.2879L22.2254 15.6629C22.5915 15.2968 22.5915 14.7032 22.2254 14.3371L16.6004 8.71209C16.2343 8.34597 15.6407 8.34597 15.2746 8.71209C14.9085 9.0782 14.9085 9.6718 15.2746 10.0379L19.2992 14.0625H8.4375Z" fill="#060047"/>
</svg>
